<svg width="256" height="256" viewBox="0 0 256 256" fill="none" xmlns="http://www.w3.org/2000/svg">
<path d="M21.3333 21.3333L234.667 234.667M111.04 111.04C109.058 113.022 106.705 114.594 104.115 115.667C101.525 116.74 98.7497 117.292 95.9466 117.292C93.1435 117.292 90.3678 116.74 87.7781 115.667C85.1884 114.594 82.8353 113.022 80.8532 111.04C78.8712 109.058 77.2989 106.705 76.2262 104.115C75.1535 101.525 74.6014 98.7497 74.6014 95.9466C74.6014 93.1435 75.1535 90.3679 76.2262 87.7781C77.2989 85.1884 78.8712 82.8353 80.8532 80.8532M144 144L63.9999 224M192 128L224 160V53.3333C224 47.6753 221.752 42.2491 217.752 38.2483C213.751 34.2475 208.325 31.9999 202.667 31.9999H95.9999M38.2933 38.2933C36.3048 40.2617 34.7251 42.6038 33.645 45.1849C32.565 47.7661 32.0059 50.5353 31.9999 53.3333V202.667C31.9999 208.325 34.2475 213.751 38.2483 217.752C42.2491 221.752 47.6753 224 53.3333 224H202.667C208.533 224 213.888 221.653 217.707 217.707" stroke="black" stroke-width="2" stroke-linecap="round" stroke-linejoin="round"/>
</svg>
